<svg width="48" height="37" viewBox="0 0 48 37" fill="none" xmlns="http://www.w3.org/2000/svg">
<path d="M0.971499 26.9742C-0.827451 28.1677 -0.227801 30.4355 3.60996 31.5097C7.56765 32.8226 11.8851 33.1806 16.0827 32.4645C16.3225 32.4645 16.5624 32.3452 16.6823 32.3452V28.2871L12.6047 29.6C11.0456 30.0774 9.48653 30.1968 7.92744 29.8387C6.72814 29.4806 6.968 28.7645 8.40716 28.1677L16.6823 25.3032V20.8871L5.16905 24.8258C3.72989 25.3032 2.29073 26.0194 0.971499 26.9742ZM28.7953 9.07097V20.6484C33.7124 23.0355 37.5502 20.6484 37.5502 14.4419C37.5502 8.11613 35.2715 5.25161 28.6753 2.98387C25.1974 1.79032 21.5995 0.716129 18.0016 0V34.4935L26.3967 37V7.99677C26.3967 6.68387 26.3967 5.72903 27.3561 6.0871C28.6753 6.44516 28.7953 7.75806 28.7953 9.07097ZM44.3862 24.229C40.9082 23.0355 37.1904 22.5581 33.5925 22.9161C31.6736 23.0355 29.8746 23.5129 28.1956 24.1097L27.8358 24.229V28.8839L35.6313 26.0194C37.1904 25.5419 38.7495 25.4226 40.3085 25.7806C41.5078 26.1387 41.268 26.8548 39.8288 27.4516L27.8358 31.8677V36.4032L44.3862 30.3161C45.5855 29.8387 46.6648 29.2419 47.6243 28.2871C48.4638 27.0936 48.104 25.4226 44.3862 24.229Z" fill="white"/>
</svg>
