<svg width="123" height="25" viewBox="0 0 123 25" fill="none" xmlns="http://www.w3.org/2000/svg">
<rect x="0.5" y="1" width="122" height="23" rx="11.5" stroke="url(#paint0_radial_1102_10333)"/>
<rect x="0.5" y="1" width="122" height="23" rx="11.5" stroke="url(#paint1_linear_1102_10333)"/>
<path d="M13.0909 6.36364L16.0909 11.2045H16.1818L19.1818 6.36364H20.8409L17.1818 12.1818L20.8409 18H19.1818L16.1818 13.25H16.0909L13.0909 18H11.4318L15.1818 12.1818L11.4318 6.36364H13.0909Z" fill="white"/>
<path d="M35.2273 12.3864V13.6364H30.1364V12.3864H35.2273Z" fill="white"/>
<path d="M51.7727 9.27273C51.7045 8.69697 51.428 8.25 50.9432 7.93182C50.4583 7.61364 49.8636 7.45455 49.1591 7.45455C48.6439 7.45455 48.1932 7.53788 47.8068 7.70455C47.4242 7.87121 47.125 8.10038 46.9091 8.39205C46.697 8.68371 46.5909 9.01515 46.5909 9.38636C46.5909 9.69697 46.6648 9.96401 46.8125 10.1875C46.964 10.4072 47.1572 10.5909 47.392 10.7386C47.6269 10.8826 47.8731 11.0019 48.1307 11.0966C48.3883 11.1875 48.625 11.2614 48.8409 11.3182L50.0227 11.6364C50.3258 11.7159 50.6629 11.8258 51.0341 11.9659C51.4091 12.1061 51.767 12.2973 52.108 12.5398C52.4527 12.7784 52.7367 13.0852 52.9602 13.4602C53.1837 13.8352 53.2955 14.2955 53.2955 14.8409C53.2955 15.4697 53.1307 16.0379 52.8011 16.5455C52.4754 17.053 51.9981 17.4564 51.3693 17.7557C50.7443 18.0549 49.9848 18.2045 49.0909 18.2045C48.2576 18.2045 47.536 18.0701 46.9261 17.8011C46.3201 17.5322 45.8428 17.1572 45.4943 16.6761C45.1496 16.1951 44.9545 15.6364 44.9091 15H46.3636C46.4015 15.4394 46.5492 15.803 46.8068 16.0909C47.0682 16.375 47.3977 16.5871 47.7955 16.7273C48.197 16.8636 48.6288 16.9318 49.0909 16.9318C49.6288 16.9318 50.1117 16.8447 50.5398 16.6705C50.9678 16.4924 51.3068 16.2462 51.5568 15.9318C51.8068 15.6136 51.9318 15.2424 51.9318 14.8182C51.9318 14.4318 51.8239 14.1174 51.608 13.875C51.392 13.6326 51.108 13.4356 50.7557 13.2841C50.4034 13.1326 50.0227 13 49.6136 12.8864L48.1818 12.4773C47.2727 12.2159 46.553 11.8428 46.0227 11.358C45.4924 10.8731 45.2273 10.2386 45.2273 9.45455C45.2273 8.80303 45.4034 8.23485 45.7557 7.75C46.1117 7.26136 46.589 6.88258 47.1875 6.61364C47.7898 6.34091 48.4621 6.20455 49.2045 6.20455C49.9545 6.20455 50.6212 6.33901 51.2045 6.60795C51.7879 6.87311 52.25 7.23674 52.5909 7.69886C52.9356 8.16098 53.1174 8.68561 53.1364 9.27273H51.7727ZM54.9759 7.61364V6.36364H63.7031V7.61364H60.044V18H58.6349V7.61364H54.9759ZM64.9957 18H63.5185L67.7912 6.36364H69.2457L73.5185 18H72.0412L68.5639 8.20455H68.473L64.9957 18ZM65.5412 13.4545H71.4957V14.7045H65.5412V13.4545ZM73.3352 7.61364V6.36364H82.0625V7.61364H78.4034V18H76.9943V7.61364H73.3352ZM85.6463 6.36364V18H84.2372V6.36364H85.6463ZM98.2898 12.1818C98.2898 13.4091 98.0682 14.4697 97.625 15.3636C97.1818 16.2576 96.5739 16.947 95.8011 17.4318C95.0284 17.9167 94.1458 18.1591 93.1534 18.1591C92.161 18.1591 91.2784 17.9167 90.5057 17.4318C89.733 16.947 89.125 16.2576 88.6818 15.3636C88.2386 14.4697 88.017 13.4091 88.017 12.1818C88.017 10.9545 88.2386 9.89394 88.6818 9C89.125 8.10606 89.733 7.41667 90.5057 6.93182C91.2784 6.44697 92.161 6.20455 93.1534 6.20455C94.1458 6.20455 95.0284 6.44697 95.8011 6.93182C96.5739 7.41667 97.1818 8.10606 97.625 9C98.0682 9.89394 98.2898 10.9545 98.2898 12.1818ZM96.9261 12.1818C96.9261 11.1742 96.7576 10.3239 96.4205 9.63068C96.0871 8.9375 95.6345 8.41288 95.0625 8.05682C94.4943 7.70076 93.858 7.52273 93.1534 7.52273C92.4489 7.52273 91.8106 7.70076 91.2386 8.05682C90.6705 8.41288 90.2178 8.9375 89.8807 9.63068C89.5473 10.3239 89.3807 11.1742 89.3807 12.1818C89.3807 13.1894 89.5473 14.0398 89.8807 14.733C90.2178 15.4261 90.6705 15.9508 91.2386 16.3068C91.8106 16.6629 92.4489 16.8409 93.1534 16.8409C93.858 16.8409 94.4943 16.6629 95.0625 16.3068C95.6345 15.9508 96.0871 15.4261 96.4205 14.733C96.7576 14.0398 96.9261 13.1894 96.9261 12.1818ZM109.886 6.36364V18H108.523L102.182 8.86364H102.068V18H100.659V6.36364H102.023L108.386 15.5227H108.5V6.36364H109.886Z" fill="white"/>
<defs>
<radialGradient id="paint0_radial_1102_10333" cx="0" cy="0" r="1" gradientUnits="userSpaceOnUse" gradientTransform="translate(-5.72763e-06 24.5) rotate(-11.0409) scale(125.32 831.663)">
<stop stop-color="#1866CC"/>
<stop offset="0.539434" stop-opacity="0"/>
<stop offset="1" stop-color="#1B7A18"/>
</radialGradient>
<linearGradient id="paint1_linear_1102_10333" x1="94.2" y1="9.43792" x2="24.2998" y2="9.16605" gradientUnits="userSpaceOnUse">
<stop stop-color="white" stop-opacity="0"/>
<stop offset="0.11334" stop-color="white" stop-opacity="0"/>
<stop offset="0.276211" stop-color="white" stop-opacity="0.35"/>
<stop offset="0.398751" stop-color="white"/>
<stop offset="0.591094" stop-color="white"/>
<stop offset="0.7338" stop-color="white" stop-opacity="0.35"/>
<stop offset="0.862545" stop-color="white" stop-opacity="0"/>
<stop offset="1" stop-color="white" stop-opacity="0"/>
</linearGradient>
</defs>
</svg>
